# xmcd
# 
# Track frame offsets:
#     150
#     15835
#     36050
#     53242
#     66562
#     81939
#     106944
#     123703
#     137926
#     154314
#     168434
#     185841
#     197564
#     217067
#     230393
# 
# Disc length: 3271
# 
# Revision: 3
# Processed by: cddbd v1.5.2PL0 Copyright (c) Steve Scherf et al.
# Submitted via: BonkEnc v1.0.6
# 
DISCID=da0cc50f
DTITLE=Victor e Leo - Victor e Leo ao vivo
DYEAR=2007
DGENRE=sertanejo
TTITLE0=Sinto falta de voce
TTITLE1=Quem de nos dois
TTITLE2=Fada
TTITLE3=Telefone Mudo
TTITLE4=Jogo da vida
TTITLE5=Pout Pourri - 60 dias paixonado/Fazenda Sao Francisco
TTITLE6=O granfino e o caipira
TTITLE7=Vida boa
TTITLE8=Amigo Apaixonado
TTITLE9=Arapuca
TTITLE10=Lembrancas de Amor
TTITLE11=Chuva de bruxaria
TTITLE12=Meu Eu em Voce
TTITLE13=Cuidador do Fogo
TTITLE14=Milonga para as missoes
EXTD=
EXTT0=
EXTT1=
EXTT2=
EXTT3=
EXTT4=
EXTT5=
EXTT6=
EXTT7=
EXTT8=
EXTT9=
EXTT10=
EXTT11=
EXTT12=
EXTT13=
EXTT14=
PLAYORDER=
